<?xml version="1.0" standalone="no"?>
<!DOCTYPE svg PUBLIC "-//W3C//DTD SVG 20010904//EN"
 "http://www.w3.org/TR/2001/REC-SVG-20010904/DTD/svg10.dtd">
<svg version="1.0" xmlns="http://www.w3.org/2000/svg"
 width="889.000000pt" height="431.000000pt" viewBox="0 0 889.000000 431.000000"
 preserveAspectRatio="xMidYMid meet">

<g transform="translate(0.000000,431.000000) scale(0.100000,-0.100000)"
fill="#000000" stroke="none">
<path d="M3438 4286 c-82 -29 -173 -78 -293 -158 -411 -275 -1000 -816 -1072
-985 -40 -96 -34 -149 24 -214 76 -84 227 -160 598 -301 457 -174 631 -282
702 -433 25 -53 28 -71 28 -155 -1 -59 -7 -116 -18 -150 -15 -50 -21 -58 -67
-83 l-51 -29 -33 38 c-43 50 -79 50 -135 3 -86 -74 -504 -289 -561 -289 -65 0
-51 86 43 273 65 128 170 284 258 385 20 22 29 44 29 67 0 45 -25 52 -88 25
-42 -18 -61 -37 -118 -112 -37 -50 -110 -136 -163 -191 -213 -223 -423 -368
-797 -553 -138 -68 -254 -124 -258 -124 -3 0 -6 7 -6 15 0 34 -73 47 -90 15
-6 -11 -32 -26 -64 -35 -53 -15 -92 -46 -96 -75 -5 -34 1 -47 26 -59 52 -23
295 40 447 116 80 40 453 259 616 362 71 45 111 65 106 54 -12 -29 -18 -109
-11 -147 10 -51 48 -91 100 -106 75 -21 161 5 391 119 110 55 217 110 239 124
l38 24 24 -24 c16 -16 35 -23 61 -23 l37 0 -54 -56 c-159 -161 -510 -365
-1020 -592 -309 -137 -807 -284 -1175 -346 -115 -20 -484 -63 -640 -76 -206
-16 -295 10 -295 85 0 70 104 214 297 410 218 222 452 385 788 550 418 205
587 269 862 325 104 21 113 25 124 51 21 53 8 63 -79 56 -126 -9 -337 -70
-583 -168 -258 -103 -305 -126 -558 -268 -288 -161 -400 -240 -587 -412 -267
-246 -386 -435 -360 -574 10 -54 75 -119 144 -146 87 -34 263 -37 462 -9 267
37 771 136 950 186 74 21 576 211 770 291 297 124 416 183 683 342 209 125
288 194 382 336 48 74 59 84 125 118 99 51 116 49 174 -18 58 -68 97 -85 191
-85 150 0 303 61 634 254 90 53 168 96 173 96 14 0 360 87 437 110 79 23 108
52 97 94 -8 33 -49 40 -111 21 -28 -9 -132 -36 -231 -60 -216 -52 -258 -69
-476 -191 -92 -51 -200 -110 -240 -130 -216 -109 -357 -112 -415 -8 -12 21
-27 45 -33 52 -13 14 -111 16 -158 2 -30 -8 -33 -7 -26 8 18 42 16 180 -5 262
-27 107 -61 165 -137 231 -108 96 -344 211 -851 415 -131 52 -253 105 -272
116 -45 28 -75 96 -67 150 16 98 127 254 275 386 151 135 493 392 764 573 184
123 232 148 274 142 63 -10 125 89 74 117 -31 16 -81 12 -153 -14z"/>
<path d="M6029 2650 c-85 -14 -161 -65 -195 -132 -24 -46 -62 -220 -75 -344
l-12 -117 -116 -76 c-134 -87 -273 -161 -303 -161 -11 0 -31 12 -45 26 -19 21
-29 24 -56 19 -41 -9 -100 -43 -161 -93 -64 -53 -81 -79 -66 -97 17 -20 73
-19 184 5 190 41 343 104 504 206 29 19 55 34 57 34 19 0 -12 -198 -69 -448
-75 -324 -267 -795 -414 -1018 -33 -49 -99 -129 -148 -179 -175 -177 -307
-207 -377 -87 -37 63 -48 131 -49 294 -1 151 -2 159 -24 183 -28 30 -47 32
-73 6 -35 -35 -44 -95 -39 -258 5 -151 5 -153 41 -226 121 -244 334 -249 571
-12 136 136 219 267 327 515 137 317 247 622 303 847 35 139 66 322 66 393 l0
59 83 59 c213 155 364 324 398 445 8 31 7 43 -5 62 -43 65 -198 113 -307 95z
m180 -121 c46 -16 42 -53 -10 -113 -33 -37 -209 -187 -327 -279 -22 -17 -23
-2 -8 95 28 170 68 246 151 285 55 25 140 31 194 12z"/>
<path d="M8220 2295 c-85 -19 -110 -30 -201 -86 -275 -170 -433 -204 -645
-138 -132 41 -188 46 -254 24 -61 -20 -189 -106 -315 -210 -108 -91 -210 -145
-270 -145 -26 0 -60 10 -89 25 -61 32 -72 31 -85 -5 -25 -74 25 -105 169 -105
86 0 101 3 160 31 83 40 176 109 281 208 111 104 166 130 263 124 58 -4 89
-13 160 -47 110 -53 175 -66 256 -51 86 16 136 35 205 80 33 21 86 51 119 65
32 14 93 45 135 70 47 27 99 48 135 54 33 6 175 11 316 11 306 0 347 9 307 64
-21 28 -85 36 -342 41 -189 4 -254 2 -305 -10z"/>
</g>
</svg>
